<?xml version="1.0" encoding="UTF-8" standalone="no"?>
<!DOCTYPE svg PUBLIC "-//W3C//DTD SVG 1.1//EN" "http://www.w3.org/Graphics/SVG/1.1/DTD/svg11.dtd">
<!-- Created with Vectornator (http://vectornator.io/) -->
<svg height="100%" stroke-miterlimit="10" style="fill-rule:nonzero;clip-rule:evenodd;stroke-linecap:round;stroke-linejoin:round;" version="1.1" viewBox="0 0 204 201.4" width="100%" xml:space="preserve" xmlns="http://www.w3.org/2000/svg" xmlns:vectornator="http://vectornator.io" xmlns:xlink="http://www.w3.org/1999/xlink">
<defs/>
<g id="Untitled" vectornator:layerName="Untitled">
<g opacity="1">
<path d="M199.1 101.3C199.1 47.7 155.6 4.2 102 4.2C48.4 4.2 4.9 47.7 4.9 101.3C4.9 149.8 40.4 190 86.9 197.2L86.9 129.3L62.1 129.3L62.1 101.3L86.9 101.3L86.9 79.9C86.9 55.6 101.3 42.1 123.5 42.1C134.1 42.1 145.1 44.1 145.1 44.1L145.1 67.8L132.9 67.8C120.8 67.8 117 75.4 117 83L117 101.2L144 101.2L139.7 129.2L117 129.2L117 197.1C163.6 190 199.1 149.8 199.1 101.3Z" fill="#ffffff" fill-rule="nonzero" opacity="1" stroke="none"/>
</g>
</g>
</svg>
